<?xml version="1.0" encoding="UTF-8" standalone="no"?>
<!-- Created with Inkscape (http://www.inkscape.org/) -->

<svg
   xmlns:dc="http://purl.org/dc/elements/1.1/"
   xmlns:cc="http://creativecommons.org/ns#"
   xmlns:rdf="http://www.w3.org/1999/02/22-rdf-syntax-ns#"
   xmlns:svg="http://www.w3.org/2000/svg"
   xmlns="http://www.w3.org/2000/svg"
   xmlns:sodipodi="http://sodipodi.sourceforge.net/DTD/sodipodi-0.dtd"
   xmlns:inkscape="http://www.inkscape.org/namespaces/inkscape"
   width="10mm"
   height="10mm"
   viewBox="0 0 10 10"
   version="1.1"
   id="svg2661"
   inkscape:version="0.92.3 (2405546, 2018-03-11)"
   sodipodi:docname="bloc1.svg">
  <defs
     id="defs2655" />
  <sodipodi:namedview
     id="base"
     pagecolor="#ffffff"
     bordercolor="#666666"
     borderopacity="1.0"
     inkscape:pageopacity="0.0"
     inkscape:pageshadow="2"
     inkscape:zoom="1.4"
     inkscape:cx="37.159665"
     inkscape:cy="-71.633854"
     inkscape:document-units="mm"
     inkscape:current-layer="layer1"
     showgrid="false"
     inkscape:window-width="1024"
     inkscape:window-height="576"
     inkscape:window-x="28"
     inkscape:window-y="55"
     inkscape:window-maximized="0" />
  <metadata
     id="metadata2658">
    <rdf:RDF>
      <cc:Work
         rdf:about="">
        <dc:format>image/svg+xml</dc:format>
        <dc:type
           rdf:resource="http://purl.org/dc/dcmitype/StillImage" />
        <dc:title></dc:title>
      </cc:Work>
    </rdf:RDF>
  </metadata>
  <g
     inkscape:label="Layer 1"
     inkscape:groupmode="layer"
     id="layer1"
     transform="translate(-15.994049,-58.238088)">
    <g
       id="g2794-2-1-1-3-37-2"
       transform="matrix(0.19991204,0,0,0.19991204,13.797216,56.041255)"
       style="fill:#ea5a47;fill-opacity:1">
      <g
         id="color-5-2-2-3-0-4-8"
         style="fill:#ea5a47;fill-opacity:1">
        <path
           id="path2-3-4-1-4-2-37-01"
           d="m 59.0349,60 h -46.07 A 0.9679,0.9679 0 0 1 12,59.0349 v -46.07 A 0.9679,0.9679 0 0 1 12.9651,12 h 46.07 A 0.9679,0.9679 0 0 1 60,12.9651 v 46.07 A 0.9679,0.9679 0 0 1 59.0349,60 Z"
           inkscape:connector-curvature="0"
           style="fill:#ea5a47;fill-opacity:1" />
      </g>
      <g
         id="line-86-7-0-8-0-1-5"
         style="fill:#ea5a47;fill-opacity:1">
        <path
           style="opacity:1;fill:#ea5a47;fill-opacity:1;stroke:#000000;stroke-width:2.02200007;stroke-linejoin:round;stroke-miterlimit:4;stroke-dasharray:none"
           id="path5-7-0-8-5-7-39-2"
           d="m 59.0349,60 h -46.07 A 0.9679,0.9679 0 0 1 12,59.0349 v -46.07 A 0.9679,0.9679 0 0 1 12.9651,12 h 46.07 A 0.9679,0.9679 0 0 1 60,12.9651 v 46.07 A 0.9679,0.9679 0 0 1 59.0349,60 Z"
           inkscape:connector-curvature="0" />
      </g>
    </g>
  </g>
</svg>
