<?xml version="1.0" encoding="UTF-8" standalone="no"?>
<!-- Created with Inkscape (http://www.inkscape.org/) -->

<svg
   xmlns:dc="http://purl.org/dc/elements/1.1/"
   xmlns:cc="http://creativecommons.org/ns#"
   xmlns:rdf="http://www.w3.org/1999/02/22-rdf-syntax-ns#"
   xmlns:svg="http://www.w3.org/2000/svg"
   xmlns="http://www.w3.org/2000/svg"
   xmlns:xlink="http://www.w3.org/1999/xlink"
   xmlns:sodipodi="http://sodipodi.sourceforge.net/DTD/sodipodi-0.dtd"
   xmlns:inkscape="http://www.inkscape.org/namespaces/inkscape"
   width="50mm"
   height="150mm"
   viewBox="0 0 50 150"
   version="1.1"
   id="svg1506"
   inkscape:version="0.92.3 (2405546, 2018-03-11)"
   sodipodi:docname="menu.svg">
  <defs
     id="defs1500">
    <linearGradient
       inkscape:collect="always"
       xlink:href="#linearGradient2748"
       id="linearGradient2750"
       x1="87.934296"
       y1="97.882935"
       x2="29.669537"
       y2="186.60971"
       gradientUnits="userSpaceOnUse"
       gradientTransform="matrix(0.83227428,0,0,1.0022885,-31.172357,17.897766)" />
    <linearGradient
       inkscape:collect="always"
       id="linearGradient2748">
      <stop
         style="stop-color:#f6ecd5;stop-opacity:1;"
         offset="0"
         id="stop2744" />
      <stop
         style="stop-color:#ebd4a1;stop-opacity:0.99453551"
         offset="1"
         id="stop2746" />
    </linearGradient>
  </defs>
  <sodipodi:namedview
     id="base"
     pagecolor="#ffffff"
     bordercolor="#666666"
     borderopacity="1.0"
     inkscape:pageopacity="0.0"
     inkscape:pageshadow="2"
     inkscape:zoom="0.7"
     inkscape:cx="67.143442"
     inkscape:cy="242.49785"
     inkscape:document-units="mm"
     inkscape:current-layer="layer1"
     showgrid="false"
     inkscape:window-width="1024"
     inkscape:window-height="576"
     inkscape:window-x="28"
     inkscape:window-y="55"
     inkscape:window-maximized="0" />
  <metadata
     id="metadata1503">
    <rdf:RDF>
      <cc:Work
         rdf:about="">
        <dc:format>image/svg+xml</dc:format>
        <dc:type
           rdf:resource="http://purl.org/dc/dcmitype/StillImage" />
        <dc:title></dc:title>
      </cc:Work>
    </rdf:RDF>
  </metadata>
  <g
     inkscape:label="Layer 1"
     inkscape:groupmode="layer"
     id="layer1"
     transform="translate(-59.666668,-54.934525)">
    <rect
       style="opacity:1;vector-effect:none;fill:url(#linearGradient2750);fill-opacity:1;fill-rule:nonzero;stroke:none;stroke-width:0.17617331;stroke-linecap:round;stroke-linejoin:round;stroke-miterlimit:4;stroke-dasharray:none;stroke-dashoffset:0;stroke-opacity:1;paint-order:markers stroke fill"
       id="rect996"
       width="50"
       height="150"
       x="-6.4791656"
       y="54.934525"
       inkscape:export-xdpi="101.6"
       inkscape:export-ydpi="101.6" />
    <text
       xml:space="preserve"
       style="font-style:normal;font-variant:normal;font-weight:bold;font-stretch:normal;font-size:15.50844765px;line-height:0.80000001;font-family:FreeMono;-inkscape-font-specification:'FreeMono Bold';text-align:start;letter-spacing:0px;word-spacing:0.64618534px;text-orientation:upright;text-anchor:start;fill:#141414;fill-opacity:1;stroke:none;stroke-width:0.64618534;stroke-opacity:1"
       x="61.933556"
       y="170.77156"
       id="text834"><tspan
         sodipodi:role="line"
         id="tspan832"
         x="61.933556"
         y="170.77156"
         style="font-style:normal;font-variant:normal;font-weight:bold;font-stretch:normal;line-height:0.80000001;font-family:FreeMono;-inkscape-font-specification:'FreeMono Bold';letter-spacing:-0.34401932px;fill:#141414;fill-opacity:1;stroke:none;stroke-width:0.64618534;stroke-opacity:1">PET</tspan><tspan
         sodipodi:role="line"
         x="61.933556"
         y="183.17831"
         style="font-style:normal;font-variant:normal;font-weight:bold;font-stretch:normal;line-height:0.80000001;font-family:FreeMono;-inkscape-font-specification:'FreeMono Bold';letter-spacing:-0.34401932px;fill:#141414;fill-opacity:1;stroke:none;stroke-width:0.64618534;stroke-opacity:1"
         id="tspan1887">SAVER</tspan></text>
    <g
       id="g2928"
       transform="translate(22.437607,18.551598)">
      <path
         style="fill:#3b3b3b;fill-opacity:1;stroke:none;stroke-width:0.26458332"
         inkscape:connector-curvature="0"
         d="m 44.382034,49.19598 c 0,0 -0.18045,0.713443 -0.125334,0.829602 0.05512,0.116159 0.541567,0.806099 0.629361,0.814673 0.08779,0.0086 0.651897,0.130124 0.651897,0.130124 l 0.445923,-0.709662 -0.36603,-0.788957 -0.779781,-0.408455 z"
         id="path1006" />
      <polygon
         transform="matrix(0.26333058,0.02571658,-0.02571658,0.26333058,41.898504,43.990489)"
         style="fill:#3b3b3b;fill-opacity:1;stroke:none"
         points="18.7544,8.5855 16.2544,10.5855 16.0877,13.3355 18.171,15.7521 20.421,15.7521 21.5877,14.0855 21.0877,11.0855 "
         id="polygon1008" />
      <path
         style="fill:#3b3b3b;fill-opacity:1;stroke:none;stroke-width:0.26458332"
         inkscape:connector-curvature="0"
         d="m 48.689279,46.603753 -0.569017,0.609035 0.229546,0.598418 0.250978,0.378957 0.67812,0.08837 0.253218,-0.551271 0.0049,-0.730588 c 0,0 -0.167495,-0.326515 -0.255263,-0.335087 -0.08777,-0.0085 -0.59247,-0.05783 -0.59247,-0.05783 z"
         id="path1010" />
      <path
         style="fill:#3b3b3b;fill-opacity:1;stroke:none;stroke-width:0.26458332"
         inkscape:connector-curvature="0"
         d="m 50.747644,47.757362 -0.342622,0.786211 c 0,0 -0.03968,0.860111 0.01972,0.932373 0.0594,0.07226 0.670078,0.397742 0.670078,0.397742 l 0.476935,-0.573712 0.179919,-0.935021 -0.413683,-0.527768 z"
         id="path1012" />
      <path
         style="fill:#3b3b3b;fill-opacity:1;stroke:none;stroke-width:0.26458332"
         inkscape:connector-curvature="0"
         d="m 47.157118,50.042991 c -0.02836,0.06369 -0.531044,0.900731 -0.531044,0.900731 l -0.0044,0.952164 -0.392949,0.847756 0.08984,0.894905 0.692519,0.621459 0.956451,-0.03952 0.636992,-0.624541 1.346053,0.508072 c 0,0 0.97309,-0.436653 0.957583,-0.504628 -0.01551,-0.06797 0.265039,-1.12609 0.265039,-1.12609 0,0 -0.653944,-1.016455 -0.855727,-0.991872 0,0 -0.191503,-1.214991 -1.001791,-1.53782 -0.810315,-0.322832 -1.567125,-0.285965 -1.567125,-0.285965 z"
         id="path1014" />
      <g
         id="g2618">
        <path
           id="path1030"
           d="m 50.261542,51.464218 c -0.0039,-0.059 -0.0093,-0.118224 -0.01825,-0.17785 -0.163116,-1.083738 -1.115336,-1.838863 -2.12682,-1.686609 -1.011484,0.152254 -1.69921,1.154202 -1.536094,2.23794 0.009,0.05963 0.02127,0.117798 0.0349,0.175354 -0.334011,0.280729 -0.521729,0.738121 -0.448478,1.224721 0.108753,0.722492 0.74355,1.22589 1.41788,1.124397 0.454169,-0.06836 1.066857,-0.829502 1.122517,-0.837864 0.05566,-0.0084 0.865267,0.538666 1.319436,0.470302 0.67433,-0.101493 1.132798,-0.769468 1.024071,-1.491958 -0.07328,-0.486603 -0.387294,-0.868473 -0.789158,-1.038433 z"
           stroke-miterlimit="10"
           inkscape:connector-curvature="0"
           style="fill:#3b3b3b;fill-opacity:1;stroke:#000000;stroke-width:0.52916664;stroke-linecap:round;stroke-linejoin:round;stroke-miterlimit:10" />
        <ellipse
           id="ellipse1032"
           stroke-miterlimit="10"
           transform="rotate(-15.565062)"
           ry="0.99574971"
           rx="0.71129131"
           cy="58.50272"
           cx="32.063179"
           style="fill:#3b3b3b;fill-opacity:1;stroke:#000000;stroke-width:0.52917558;stroke-linecap:round;stroke-linejoin:round;stroke-miterlimit:10" />
        <ellipse
           id="ellipse1034"
           stroke-miterlimit="10"
           transform="rotate(-28.465101)"
           ry="0.99571002"
           rx="0.71126294"
           cy="65.458481"
           cx="15.77136"
           style="fill:#3b3b3b;fill-opacity:1;stroke:#000000;stroke-width:0.52915448;stroke-linecap:round;stroke-linejoin:round;stroke-miterlimit:10" />
        <ellipse
           id="ellipse1036"
           stroke-miterlimit="10"
           transform="rotate(-80.132519)"
           ry="0.71128035"
           rx="0.99573433"
           cy="58.643692"
           cx="-39.356358"
           style="fill:#3b3b3b;fill-opacity:1;stroke:#000000;stroke-width:0.52916741;stroke-linecap:round;stroke-linejoin:round;stroke-miterlimit:10" />
        <ellipse
           id="ellipse1038"
           stroke-miterlimit="10"
           transform="rotate(-2.8059701)"
           ry="0.99571902"
           rx="0.71126944"
           cy="49.738789"
           cx="46.550838"
           style="fill:#3b3b3b;fill-opacity:1;stroke:#000000;stroke-width:0.52915931;stroke-linecap:round;stroke-linejoin:round;stroke-miterlimit:10" />
      </g>
      <path
         style="fill:#3b3b3b;fill-opacity:1;stroke:none;stroke-width:0.26458332"
         inkscape:connector-curvature="0"
         d="m 54.149358,55.705292 c 0,0 -0.4106,0.801743 -0.373132,0.871862 0.03747,0.07012 0.289482,0.892257 0.289482,0.892257 0,0 0.669546,0.176164 0.697936,0.112476 0.02836,-0.06369 0.360274,-0.740197 0.360274,-0.740197 l 0.0595,-0.836032 z"
         id="path1016" />
      <polygon
         transform="matrix(0.26333058,0.02571658,-0.02571658,0.26333058,46.041182,44.124124)"
         style="fill:#3b3b3b;fill-opacity:1;stroke:none"
         points="47.3377,40.2521 47.8377,37.7521 46.921,35.3355 44.171,35.0855 42.421,38.2521 43.671,41.8355 "
         id="polygon1018" />
      <path
         style="fill:#3b3b3b;fill-opacity:1;stroke:none;stroke-width:0.26458332"
         inkscape:connector-curvature="0"
         d="m 59.104553,55.325224 c -0.02837,0.06369 -0.724257,0.837572 -0.724257,0.837572 l 0.159958,0.857464 0.748237,0.05093 0.605953,-0.760494 -0.07645,-0.804992 z"
         id="path1020" />
      <path
         style="fill:#3b3b3b;fill-opacity:1;stroke:none;stroke-width:0.26458332"
         inkscape:connector-curvature="0"
         d="m 60.325176,57.571165 -0.737618,0.747636 -0.202386,0.711301 0.347344,0.299763 1.013206,-0.166894 c 0,0 0.319051,-0.544841 0.32548,-0.610674 0.0064,-0.06583 -0.03687,-0.756811 -0.03687,-0.756811 z"
         id="path1022" />
      <path
         style="fill:#3b3b3b;fill-opacity:1;stroke:none;stroke-width:0.26458332"
         inkscape:connector-curvature="0"
         d="m 55.585157,58.016536 c -0.0774,0.254933 -0.686283,1.129267 -0.686283,1.129267 0,0 -0.817347,0.429718 -0.869789,0.513202 -0.05247,0.08348 -0.289648,0.924305 -0.289648,0.924305 l 0.322133,0.78467 0.604245,0.391312 1.287253,-0.250907 0.765816,1.005236 c 0,0 0.842966,0.215244 1.230498,-0.123528 0.387531,-0.338773 0.616163,-1.0918 0.616163,-1.0918 l -0.317846,-0.828566 0.256467,-1.038322 c 0,0 -0.148112,-1.43228 -0.837477,-1.632523 -0.689368,-0.200218 -1.983553,-0.10508 -2.081532,0.217654 z"
         id="path1024" />
      <path
         style="fill:#3b3b3b;fill-opacity:1;stroke:#000000;stroke-width:0.52916664;stroke-linecap:round;stroke-linejoin:round;stroke-miterlimit:10"
         inkscape:connector-curvature="0"
         stroke-miterlimit="10"
         d="m 58.275089,60.446775 c 0.0258,-0.0532 0.05044,-0.10734 0.07215,-0.163572 0.394642,-1.022435 -0.05903,-2.149834 -1.013292,-2.518173 -0.954264,-0.368339 -2.047749,0.16191 -2.442391,1.184345 -0.02171,0.05626 -0.03982,0.112896 -0.05647,0.169649 -0.42917,0.07862 -0.818648,0.383148 -0.995844,0.842232 -0.263102,0.681605 0.03934,1.433222 0.675528,1.678782 0.42847,0.165381 1.337585,-0.192743 1.390076,-0.172464 0.05249,0.02028 0.485222,0.896327 0.913719,1.06171 0.636158,0.245557 1.365167,-0.107958 1.628269,-0.789563 0.177175,-0.459139 0.0933,-0.946378 -0.171741,-1.292946 z"
         id="path1040" />
      <ellipse
         style="fill:#3b3b3b;fill-opacity:1;stroke:#000000;stroke-width:0.52918893;stroke-linecap:round;stroke-linejoin:round;stroke-miterlimit:10"
         cx="-39.867531"
         cy="68.700455"
         rx="0.99577487"
         ry="0.71130931"
         transform="rotate(-75.899977)"
         stroke-miterlimit="10"
         id="ellipse1042" />
      <ellipse
         style="fill:#3b3b3b;fill-opacity:1;stroke:#000000;stroke-width:0.52917463;stroke-linecap:round;stroke-linejoin:round;stroke-miterlimit:10"
         cx="55.645397"
         cy="55.471516"
         rx="0.71129006"
         ry="0.99574792"
         transform="rotate(1.201902)"
         stroke-miterlimit="10"
         id="ellipse1044" />
      <ellipse
         style="fill:#3b3b3b;fill-opacity:1;stroke:#000000;stroke-width:0.52919424;stroke-linecap:round;stroke-linejoin:round;stroke-miterlimit:10"
         cx="-6.7901473"
         cy="83.728279"
         rx="0.99578482"
         ry="0.71131641"
         transform="rotate(-50.465219)"
         stroke-miterlimit="10"
         id="ellipse1046" />
      <ellipse
         style="fill:#3b3b3b;fill-opacity:1;stroke:#000000;stroke-width:0.529172;stroke-linecap:round;stroke-linejoin:round;stroke-miterlimit:10"
         cx="-23.469196"
         cy="78.168808"
         rx="0.99574298"
         ry="0.71128654"
         transform="rotate(-63.137919)"
         stroke-miterlimit="10"
         id="ellipse1048" />
      <path
         style="fill:#3b3b3b;fill-opacity:1;stroke:none;stroke-width:0.26458332"
         inkscape:connector-curvature="0"
         d="m 42.955369,71.439317 c 0,0 0.0027,0.735905 0.08502,0.834697 0.08229,0.09879 0.725104,0.646 0.81227,0.63246 0.08717,-0.01351 0.663772,-0.03617 0.663772,-0.03617 l 0.255327,-0.798296 -0.550822,-0.673073 -0.856887,-0.20159 z"
         id="path1006-0" />
      <polygon
         transform="matrix(0.26144786,-0.04061221,0.04061221,0.26144786,39.254749,67.015465)"
         style="fill:#3b3b3b;fill-opacity:1;stroke:none"
         points="21.0877,11.0855 18.7544,8.5855 16.2544,10.5855 16.0877,13.3355 18.171,15.7521 20.421,15.7521 21.5877,14.0855 "
         id="polygon1008-3" />
      <path
         style="fill:#3b3b3b;fill-opacity:1;stroke:none;stroke-width:0.26458332"
         inkscape:connector-curvature="0"
         d="m 46.482178,67.856914 -0.399586,0.73146 0.371221,0.522485 0.337375,0.304593 0.678781,-0.08313 0.108092,-0.596939 -0.177034,-0.708831 c 0,0 -0.243469,-0.274572 -0.33061,-0.261036 -0.08712,0.0136 -0.588226,0.0914 -0.588226,0.0914 z"
         id="path1010-5" />
      <path
         style="fill:#3b3b3b;fill-opacity:1;stroke:none;stroke-width:0.26458332"
         inkscape:connector-curvature="0"
         d="m 48.762844,68.462096 -0.136228,0.846734 c 0,0 0.175575,0.842935 0.251086,0.898145 0.07551,0.05521 0.747969,0.21851 0.747969,0.21851 l 0.319189,-0.674337 -0.05838,-0.950383 -0.531989,-0.40824 z"
         id="path1012-8" />
      <path
         style="fill:#3b3b3b;fill-opacity:1;stroke:none;stroke-width:0.26458332"
         inkscape:connector-curvature="0"
         d="m 45.853928,71.569215 c -0.01162,0.06874 -0.29023,1.004535 -0.29023,1.004535 l 0.232649,0.923314 -0.169659,0.918866 0.309679,0.844409 0.825367,0.429607 0.916539,-0.276254 0.461566,-0.763392 1.430137,0.157178 c 0,0 0.833843,-0.665038 0.80191,-0.727017 -0.03193,-0.06197 -0.02348,-1.156621 -0.02348,-1.156621 0,0 -0.886286,-0.82178 -1.075607,-0.747764 0,0 -0.487786,-1.129133 -1.352915,-1.240199 -0.865157,-0.111063 -1.588994,0.112949 -1.588994,0.112949 z"
         id="path1014-5" />
      <path
         style="fill:#3b3b3b;fill-opacity:1;stroke:#000000;stroke-width:0.52916664;stroke-linecap:round;stroke-linejoin:round;stroke-miterlimit:10"
         inkscape:connector-curvature="0"
         stroke-miterlimit="10"
         d="m 49.214342,72.173325 c -0.01846,-0.05617 -0.03842,-0.112192 -0.06193,-0.167716 -0.427634,-1.00907 -1.537793,-1.503523 -2.479585,-1.104387 -0.941792,0.399136 -1.358592,1.540689 -0.930958,2.54976 0.02355,0.05552 0.04991,0.108801 0.07743,0.161156 -0.253658,0.355007 -0.321667,0.844721 -0.129648,1.297793 0.285099,0.672711 1.025184,1.002332 1.653055,0.736249 0.422877,-0.179213 0.826915,-1.068863 0.878744,-1.090811 0.05182,-0.02199 0.972083,0.306436 1.394959,0.127219 0.627871,-0.266083 0.90572,-1.027124 0.620647,-1.69984 -0.192048,-0.453067 -0.591201,-0.744797 -1.022716,-0.809424 z"
         id="path1030-0" />
      <ellipse
         style="fill:#3b3b3b;fill-opacity:1;stroke:#000000;stroke-width:0.52917558;stroke-linecap:round;stroke-linejoin:round;stroke-miterlimit:10"
         cx="4.0306907"
         cy="82.54702"
         rx="0.71129131"
         ry="0.99574971"
         transform="rotate(-29.972339)"
         stroke-miterlimit="10"
         id="ellipse1032-9" />
      <ellipse
         style="fill:#3b3b3b;fill-opacity:1;stroke:#000000;stroke-width:0.52915448;stroke-linecap:round;stroke-linejoin:round;stroke-miterlimit:10"
         cx="-16.921524"
         cy="82.63765"
         rx="0.71126294"
         ry="0.99571002"
         transform="rotate(-42.872378)"
         stroke-miterlimit="10"
         id="ellipse1034-9" />
      <ellipse
         style="fill:#3b3b3b;fill-opacity:1;stroke:#000000;stroke-width:0.52916741;stroke-linecap:round;stroke-linejoin:round;stroke-miterlimit:10"
         cx="-73.109055"
         cy="43.653572"
         rx="0.99573433"
         ry="0.71128035"
         transform="rotate(-94.539796)"
         stroke-miterlimit="10"
         id="ellipse1036-8" />
      <ellipse
         style="fill:#3b3b3b;fill-opacity:1;stroke:#000000;stroke-width:0.52915931;stroke-linecap:round;stroke-linejoin:round;stroke-miterlimit:10"
         cx="24.520786"
         cy="79.380402"
         rx="0.71126944"
         ry="0.99571902"
         transform="rotate(-17.213247)"
         stroke-miterlimit="10"
         id="ellipse1038-0" />
      <path
         style="fill:#3b3b3b;fill-opacity:1;stroke:none;stroke-width:0.26458332"
         inkscape:connector-curvature="0"
         d="m 49.216649,93.915406 c 0,0 0.0027,0.735904 0.08502,0.834697 0.08229,0.09879 0.725103,0.645999 0.812269,0.632459 0.08717,-0.01351 0.663773,-0.03617 0.663773,-0.03617 l 0.255326,-0.798296 -0.550821,-0.673072 -0.856887,-0.201591 z"
         id="path1006-0-8" />
      <polygon
         transform="matrix(0.26144786,-0.04061221,0.04061221,0.26144786,45.516028,89.491553)"
         style="fill:#3b3b3b;fill-opacity:1;stroke:none"
         points="18.171,15.7521 20.421,15.7521 21.5877,14.0855 21.0877,11.0855 18.7544,8.5855 16.2544,10.5855 16.0877,13.3355 "
         id="polygon1008-3-7" />
      <path
         style="fill:#3b3b3b;fill-opacity:1;stroke:none;stroke-width:0.26458332"
         inkscape:connector-curvature="0"
         d="m 52.743458,90.333002 -0.399587,0.731461 0.371222,0.522484 0.337374,0.304593 0.678782,-0.08313 0.108091,-0.596938 -0.177034,-0.708832 c 0,0 -0.243468,-0.274571 -0.330609,-0.261036 -0.08713,0.01361 -0.588226,0.0914 -0.588226,0.0914 z"
         id="path1010-5-3" />
      <path
         style="fill:#3b3b3b;fill-opacity:1;stroke:none;stroke-width:0.26458332"
         inkscape:connector-curvature="0"
         d="m 55.024123,90.938184 -0.136227,0.846735 c 0,0 0.175574,0.842934 0.251086,0.898144 0.07551,0.05521 0.747968,0.21851 0.747968,0.21851 l 0.31919,-0.674337 -0.05839,-0.950382 -0.531989,-0.408241 z"
         id="path1012-8-1" />
      <path
         style="fill:#3b3b3b;fill-opacity:1;stroke:none;stroke-width:0.26458332"
         inkscape:connector-curvature="0"
         d="m 52.115208,94.045303 c -0.01162,0.06874 -0.29023,1.004535 -0.29023,1.004535 l 0.232649,0.923314 -0.169659,0.918867 0.309679,0.844408 0.825367,0.429607 0.916539,-0.276254 0.461566,-0.763392 1.430136,0.157178 c 0,0 0.833843,-0.665038 0.801911,-0.727017 -0.03193,-0.06197 -0.02348,-1.156621 -0.02348,-1.156621 0,0 -0.886285,-0.82178 -1.075606,-0.747763 0,0 -0.487786,-1.129133 -1.352916,-1.2402 -0.865156,-0.111062 -1.588993,0.112949 -1.588993,0.112949 z"
         id="path1014-5-0" />
      <path
         style="fill:#3b3b3b;fill-opacity:1;stroke:#000000;stroke-width:0.52916664;stroke-linecap:round;stroke-linejoin:round;stroke-miterlimit:10"
         inkscape:connector-curvature="0"
         stroke-miterlimit="10"
         d="m 55.475622,94.649414 c -0.01846,-0.05617 -0.03842,-0.112192 -0.06193,-0.167716 -0.427635,-1.009071 -1.537794,-1.503524 -2.479585,-1.104388 -0.941792,0.399136 -1.358592,1.54069 -0.930958,2.54976 0.02355,0.05552 0.04991,0.108802 0.07743,0.161156 -0.253658,0.355007 -0.321668,0.844721 -0.129648,1.297793 0.285098,0.672711 1.025184,1.002333 1.653054,0.736249 0.422878,-0.179213 0.826916,-1.068863 0.878745,-1.090811 0.05182,-0.02199 0.972082,0.306436 1.394959,0.127219 0.62787,-0.266083 0.905719,-1.027124 0.620647,-1.69984 -0.192049,-0.453067 -0.591202,-0.744797 -1.022716,-0.809423 z"
         id="path1030-0-0" />
      <ellipse
         style="fill:#3b3b3b;fill-opacity:1;stroke:#000000;stroke-width:0.52917558;stroke-linecap:round;stroke-linejoin:round;stroke-miterlimit:10"
         cx="-1.7740176"
         cy="105.14533"
         rx="0.71129131"
         ry="0.99574971"
         transform="rotate(-29.972339)"
         stroke-miterlimit="10"
         id="ellipse1032-9-5" />
      <ellipse
         style="fill:#3b3b3b;fill-opacity:1;stroke:#000000;stroke-width:0.52915448;stroke-linecap:round;stroke-linejoin:round;stroke-miterlimit:10"
         cx="-27.624817"
         cy="103.3697"
         rx="0.71126294"
         ry="0.99571002"
         transform="rotate(-42.872378)"
         stroke-miterlimit="10"
         id="ellipse1034-9-0" />
      <ellipse
         style="fill:#3b3b3b;fill-opacity:1;stroke:#000000;stroke-width:0.52916741;stroke-linecap:round;stroke-linejoin:round;stroke-miterlimit:10"
         cx="-96.010216"
         cy="48.116188"
         rx="0.99573433"
         ry="0.71128035"
         transform="rotate(-94.539796)"
         stroke-miterlimit="10"
         id="ellipse1036-8-3" />
      <ellipse
         style="fill:#3b3b3b;fill-opacity:1;stroke:#000000;stroke-width:0.52915931;stroke-linecap:round;stroke-linejoin:round;stroke-miterlimit:10"
         cx="23.850298"
         cy="102.70268"
         rx="0.71126944"
         ry="0.99571902"
         transform="rotate(-17.213247)"
         stroke-miterlimit="10"
         id="ellipse1038-0-1" />
      <path
         style="fill:#3b3b3b;fill-opacity:1;stroke:none;stroke-width:0.26458332"
         inkscape:connector-curvature="0"
         d="m 59.105621,120.37509 c 0,0 0.0027,0.7359 0.08502,0.8347 0.08229,0.0988 0.725104,0.646 0.81227,0.63246 0.08717,-0.0135 0.663773,-0.0362 0.663773,-0.0362 l 0.255326,-0.7983 -0.550822,-0.67307 -0.856887,-0.20159 z"
         id="path1006-0-0" />
      <polygon
         transform="matrix(0.26144786,-0.04061221,0.04061221,0.26144786,55.405001,115.95124)"
         style="fill:#3b3b3b;fill-opacity:1;stroke:none"
         points="18.171,15.7521 20.421,15.7521 21.5877,14.0855 21.0877,11.0855 18.7544,8.5855 16.2544,10.5855 16.0877,13.3355 "
         id="polygon1008-3-1" />
      <path
         style="fill:#3b3b3b;fill-opacity:1;stroke:none;stroke-width:0.26458332"
         inkscape:connector-curvature="0"
         d="m 62.632431,116.79269 -0.399587,0.73146 0.371221,0.52248 0.337375,0.30459 0.678782,-0.0831 0.108091,-0.59694 -0.177034,-0.70883 c 0,0 -0.243469,-0.27457 -0.330609,-0.26104 -0.08713,0.0136 -0.588227,0.0914 -0.588227,0.0914 z"
         id="path1010-5-7" />
      <path
         style="fill:#3b3b3b;fill-opacity:1;stroke:none;stroke-width:0.26458332"
         inkscape:connector-curvature="0"
         d="m 64.913096,117.39787 -0.136228,0.84673 c 0,0 0.175575,0.84294 0.251087,0.89815 0.07551,0.0552 0.747968,0.21851 0.747968,0.21851 l 0.319189,-0.67434 -0.05838,-0.95038 -0.531989,-0.40824 z"
         id="path1012-8-9" />
      <path
         style="fill:#3b3b3b;fill-opacity:1;stroke:none;stroke-width:0.26458332"
         inkscape:connector-curvature="0"
         d="m 62.00418,120.50499 c -0.01162,0.0687 -0.29023,1.00453 -0.29023,1.00453 l 0.232649,0.92332 -0.169658,0.91886 0.309678,0.84441 0.825368,0.42961 0.916539,-0.27626 0.461565,-0.76339 1.430137,0.15718 c 0,0 0.833843,-0.66504 0.801911,-0.72702 -0.03193,-0.062 -0.02348,-1.15662 -0.02348,-1.15662 0,0 -0.886286,-0.82178 -1.075606,-0.74776 0,0 -0.487786,-1.12914 -1.352916,-1.2402 -0.865157,-0.11106 -1.588993,0.11295 -1.588993,0.11295 z"
         id="path1014-5-1" />
      <path
         style="fill:#3b3b3b;fill-opacity:1;stroke:#000000;stroke-width:0.52916664;stroke-linecap:round;stroke-linejoin:round;stroke-miterlimit:10"
         inkscape:connector-curvature="0"
         stroke-miterlimit="10"
         d="m 65.364595,121.1091 c -0.01846,-0.0562 -0.03842,-0.1122 -0.06193,-0.16772 -0.427634,-1.00907 -1.537793,-1.50352 -2.479585,-1.10439 -0.941791,0.39914 -1.358592,1.54069 -0.930958,2.54976 0.02355,0.0555 0.04991,0.1088 0.07743,0.16116 -0.253658,0.35501 -0.321667,0.84472 -0.129647,1.29779 0.285098,0.67271 1.025183,1.00233 1.653054,0.73625 0.422877,-0.17921 0.826915,-1.06886 0.878744,-1.09081 0.05182,-0.022 0.972083,0.30644 1.394959,0.12722 0.627871,-0.26608 0.90572,-1.02712 0.620647,-1.69984 -0.192048,-0.45307 -0.591201,-0.7448 -1.022714,-0.80942 z"
         id="path1030-0-03" />
      <ellipse
         style="fill:#3b3b3b;fill-opacity:1;stroke:#000000;stroke-width:0.52917558;stroke-linecap:round;stroke-linejoin:round;stroke-miterlimit:10"
         cx="-6.4263067"
         cy="133.00682"
         rx="0.71129131"
         ry="0.99574971"
         transform="rotate(-29.972339)"
         stroke-miterlimit="10"
         id="ellipse1032-9-59" />
      <ellipse
         style="fill:#3b3b3b;fill-opacity:1;stroke:#000000;stroke-width:0.52915448;stroke-linecap:round;stroke-linejoin:round;stroke-miterlimit:10"
         cx="-38.379787"
         cy="129.48936"
         rx="0.71126294"
         ry="0.99571002"
         transform="rotate(-42.872378)"
         stroke-miterlimit="10"
         id="ellipse1034-9-4" />
      <ellipse
         style="fill:#3b3b3b;fill-opacity:1;stroke:#000000;stroke-width:0.52916741;stroke-linecap:round;stroke-linejoin:round;stroke-miterlimit:10"
         cx="-123.16962"
         cy="55.879814"
         rx="0.99573433"
         ry="0.71128035"
         transform="rotate(-94.539796)"
         stroke-miterlimit="10"
         id="ellipse1036-8-8" />
      <ellipse
         style="fill:#3b3b3b;fill-opacity:1;stroke:#000000;stroke-width:0.52915931;stroke-linecap:round;stroke-linejoin:round;stroke-miterlimit:10"
         cx="25.466158"
         cy="130.90367"
         rx="0.71126944"
         ry="0.99571902"
         transform="rotate(-17.213247)"
         stroke-miterlimit="10"
         id="ellipse1038-0-4" />
      <path
         style="fill:#3b3b3b;fill-opacity:1;stroke:none;stroke-width:0.26458332"
         inkscape:connector-curvature="0"
         d="m 57.473243,79.891124 c 0,0 -0.18045,0.713443 -0.125334,0.829602 0.05512,0.116159 0.541567,0.806099 0.629361,0.814673 0.08779,0.0086 0.651897,0.130124 0.651897,0.130124 l 0.445923,-0.709662 -0.36603,-0.788957 -0.779781,-0.408455 z"
         id="path1006-9" />
      <polygon
         transform="matrix(0.26333058,0.02571658,-0.02571658,0.26333058,54.989713,74.685633)"
         style="fill:#3b3b3b;fill-opacity:1;stroke:none"
         points="21.5877,14.0855 21.0877,11.0855 18.7544,8.5855 16.2544,10.5855 16.0877,13.3355 18.171,15.7521 20.421,15.7521 "
         id="polygon1008-1" />
      <path
         style="fill:#3b3b3b;fill-opacity:1;stroke:none;stroke-width:0.26458332"
         inkscape:connector-curvature="0"
         d="m 61.780488,77.298897 -0.569017,0.609035 0.229546,0.598418 0.250978,0.378957 0.67812,0.08837 0.253218,-0.551271 0.0049,-0.730588 c 0,0 -0.167495,-0.326515 -0.255263,-0.335087 -0.08777,-0.0085 -0.59247,-0.05783 -0.59247,-0.05783 z"
         id="path1010-9" />
      <path
         style="fill:#3b3b3b;fill-opacity:1;stroke:none;stroke-width:0.26458332"
         inkscape:connector-curvature="0"
         d="m 63.838853,78.452506 -0.342622,0.786211 c 0,0 -0.03968,0.860111 0.01972,0.932373 0.0594,0.07226 0.670078,0.397742 0.670078,0.397742 L 64.662964,79.99512 64.842883,79.060099 64.4292,78.532331 Z"
         id="path1012-4" />
      <path
         style="fill:#3b3b3b;fill-opacity:1;stroke:none;stroke-width:0.26458332"
         inkscape:connector-curvature="0"
         d="m 60.248327,80.738135 c -0.02836,0.06369 -0.531044,0.900731 -0.531044,0.900731 l -0.0044,0.952164 -0.392949,0.847756 0.08984,0.894905 0.692519,0.621459 0.956451,-0.03952 0.636992,-0.624541 1.346053,0.508072 c 0,0 0.97309,-0.436653 0.957583,-0.504628 -0.01551,-0.06797 0.265039,-1.12609 0.265039,-1.12609 0,0 -0.653944,-1.016455 -0.855727,-0.991872 0,0 -0.191503,-1.214991 -1.001791,-1.53782 -0.810315,-0.322832 -1.567125,-0.285965 -1.567125,-0.285965 z"
         id="path1014-2" />
      <path
         style="fill:#3b3b3b;fill-opacity:1;stroke:#000000;stroke-width:0.52916664;stroke-linecap:round;stroke-linejoin:round;stroke-miterlimit:10"
         inkscape:connector-curvature="0"
         stroke-miterlimit="10"
         d="m 63.352751,82.159362 c -0.0039,-0.059 -0.0093,-0.118224 -0.01825,-0.17785 -0.163116,-1.083738 -1.115336,-1.838863 -2.12682,-1.686609 -1.011484,0.152254 -1.69921,1.154202 -1.536094,2.23794 0.009,0.05963 0.02127,0.117798 0.0349,0.175354 -0.334011,0.280729 -0.521729,0.738121 -0.448478,1.224721 0.108753,0.722492 0.74355,1.22589 1.41788,1.124397 0.454169,-0.06836 1.066857,-0.829502 1.122517,-0.837864 0.05566,-0.0084 0.865267,0.538666 1.319436,0.470302 0.67433,-0.101493 1.132798,-0.769468 1.024071,-1.491958 -0.07328,-0.486603 -0.387294,-0.868473 -0.789158,-1.038433 z"
         id="path1030-06" />
      <ellipse
         style="fill:#3b3b3b;fill-opacity:1;stroke:#000000;stroke-width:0.52917558;stroke-linecap:round;stroke-linejoin:round;stroke-miterlimit:10"
         cx="36.437782"
         cy="91.584961"
         rx="0.71129131"
         ry="0.99574971"
         transform="rotate(-15.565062)"
         stroke-miterlimit="10"
         id="ellipse1032-5" />
      <ellipse
         style="fill:#3b3b3b;fill-opacity:1;stroke:#000000;stroke-width:0.52915448;stroke-linecap:round;stroke-linejoin:round;stroke-miterlimit:10"
         cx="12.649919"
         cy="98.682388"
         rx="0.71126294"
         ry="0.99571002"
         transform="rotate(-28.465101)"
         stroke-miterlimit="10"
         id="ellipse1034-95" />
      <ellipse
         style="fill:#3b3b3b;fill-opacity:1;stroke:#000000;stroke-width:0.52916741;stroke-linecap:round;stroke-linejoin:round;stroke-miterlimit:10"
         cx="-67.353981"
         cy="76.801468"
         rx="0.99573433"
         ry="0.71128035"
         transform="rotate(-80.132519)"
         stroke-miterlimit="10"
         id="ellipse1036-6" />
      <ellipse
         style="fill:#3b3b3b;fill-opacity:1;stroke:#000000;stroke-width:0.52915931;stroke-linecap:round;stroke-linejoin:round;stroke-miterlimit:10"
         cx="58.123707"
         cy="81.037994"
         rx="0.71126944"
         ry="0.99571902"
         transform="rotate(-2.8059701)"
         stroke-miterlimit="10"
         id="ellipse1038-1" />
      <path
         style="fill:#3b3b3b;fill-opacity:1;stroke:none;stroke-width:0.26458332"
         inkscape:connector-curvature="0"
         d="m 66.48885,100.955 c 0,0 -0.4106,0.80174 -0.373132,0.87186 0.03747,0.0701 0.289482,0.89226 0.289482,0.89226 0,0 0.669546,0.17616 0.697936,0.11247 0.02836,-0.0637 0.360274,-0.74019 0.360274,-0.74019 l 0.0595,-0.83604 z"
         id="path1016-4" />
      <polygon
         transform="matrix(0.26333058,0.02571658,-0.02571658,0.26333058,58.380674,89.373829)"
         style="fill:#3b3b3b;fill-opacity:1;stroke:none"
         points="43.671,41.8355 47.3377,40.2521 47.8377,37.7521 46.921,35.3355 44.171,35.0855 42.421,38.2521 "
         id="polygon1018-3" />
      <path
         style="fill:#3b3b3b;fill-opacity:1;stroke:none;stroke-width:0.26458332"
         inkscape:connector-curvature="0"
         d="m 71.444045,100.57493 c -0.02837,0.0637 -0.724257,0.83757 -0.724257,0.83757 l 0.159958,0.85747 0.748237,0.0509 0.605953,-0.7605 -0.07645,-0.80499 z"
         id="path1020-7" />
      <path
         style="fill:#3b3b3b;fill-opacity:1;stroke:none;stroke-width:0.26458332"
         inkscape:connector-curvature="0"
         d="m 72.664668,102.82087 -0.737618,0.74764 -0.202386,0.7113 0.347344,0.29976 1.013206,-0.16689 c 0,0 0.319051,-0.54484 0.32548,-0.61068 0.0064,-0.0658 -0.03687,-0.75681 -0.03687,-0.75681 z"
         id="path1022-2" />
      <path
         style="fill:#3b3b3b;fill-opacity:1;stroke:none;stroke-width:0.26458332"
         inkscape:connector-curvature="0"
         d="m 67.924649,103.26624 c -0.0774,0.25493 -0.686283,1.12927 -0.686283,1.12927 0,0 -0.817347,0.42972 -0.869789,0.5132 -0.05247,0.0835 -0.289648,0.9243 -0.289648,0.9243 l 0.322133,0.78467 0.604245,0.39132 1.287253,-0.25091 0.765816,1.00524 c 0,0 0.842966,0.21524 1.230498,-0.12353 0.387531,-0.33878 0.616163,-1.0918 0.616163,-1.0918 l -0.317846,-0.82857 0.256467,-1.03832 c 0,0 -0.148112,-1.43228 -0.837477,-1.63252 -0.689368,-0.20022 -1.983553,-0.10508 -2.081532,0.21765 z"
         id="path1024-7" />
      <path
         style="fill:#3b3b3b;fill-opacity:1;stroke:#000000;stroke-width:0.52916664;stroke-linecap:round;stroke-linejoin:round;stroke-miterlimit:10"
         inkscape:connector-curvature="0"
         stroke-miterlimit="10"
         d="m 70.614581,105.69648 c 0.0258,-0.0532 0.05044,-0.10734 0.07215,-0.16357 0.394642,-1.02244 -0.05903,-2.14984 -1.013292,-2.51817 -0.954264,-0.36834 -2.047749,0.16191 -2.442391,1.18434 -0.02171,0.0563 -0.03982,0.1129 -0.05647,0.16965 -0.42917,0.0786 -0.818648,0.38315 -0.995844,0.84223 -0.263102,0.68161 0.03934,1.43322 0.675528,1.67878 0.42847,0.16538 1.337585,-0.19274 1.390076,-0.17246 0.05249,0.0203 0.485222,0.89633 0.913719,1.06171 0.636158,0.24556 1.365167,-0.10796 1.628269,-0.78956 0.177175,-0.45914 0.0933,-0.94638 -0.171741,-1.29295 z"
         id="path1040-3" />
      <ellipse
         style="fill:#3b3b3b;fill-opacity:1;stroke:#000000;stroke-width:0.52918893;stroke-linecap:round;stroke-linejoin:round;stroke-miterlimit:10"
         cx="-80.747856"
         cy="91.691704"
         rx="0.99577487"
         ry="0.71130931"
         transform="rotate(-75.899977)"
         stroke-miterlimit="10"
         id="ellipse1042-3" />
      <ellipse
         style="fill:#3b3b3b;fill-opacity:1;stroke:#000000;stroke-width:0.52917463;stroke-linecap:round;stroke-linejoin:round;stroke-miterlimit:10"
         cx="68.931313"
         cy="100.45243"
         rx="0.71129006"
         ry="0.99574792"
         transform="rotate(1.201902)"
         stroke-miterlimit="10"
         id="ellipse1044-9" />
      <ellipse
         style="fill:#3b3b3b;fill-opacity:1;stroke:#000000;stroke-width:0.52919424;stroke-linecap:round;stroke-linejoin:round;stroke-miterlimit:10"
         cx="-33.833794"
         cy="122.04851"
         rx="0.99578482"
         ry="0.71131641"
         transform="rotate(-50.465219)"
         stroke-miterlimit="10"
         id="ellipse1046-2" />
      <ellipse
         style="fill:#3b3b3b;fill-opacity:1;stroke:#000000;stroke-width:0.529172;stroke-linecap:round;stroke-linejoin:round;stroke-miterlimit:10"
         cx="-58.26078"
         cy="109.62266"
         rx="0.99574298"
         ry="0.71128654"
         transform="rotate(-63.137919)"
         stroke-miterlimit="10"
         id="ellipse1048-4" />
      <path
         style="fill:#3b3b3b;fill-opacity:1;stroke:none;stroke-width:0.26458332"
         inkscape:connector-curvature="0"
         d="m 74.593223,125.60065 c 0,0 0.01398,0.73578 0.09776,0.8333 0.08379,0.0975 0.734886,0.63485 0.821836,0.61998 0.08695,-0.0148 0.663142,-0.0463 0.663142,-0.0463 l 0.243102,-0.8021 -0.561038,-0.66458 -0.859867,-0.18848 z"
         id="path1006-0-0-4" />
      <polygon
         transform="matrix(0.26079699,-0.04460121,0.04460121,0.26079699,70.825458,121.23384)"
         style="fill:#3b3b3b;fill-opacity:1;stroke:none"
         points="20.421,15.7521 21.5877,14.0855 21.0877,11.0855 18.7544,8.5855 16.2544,10.5855 16.0877,13.3355 18.171,15.7521 "
         id="polygon1008-3-1-9" />
      <path
         style="fill:#3b3b3b;fill-opacity:1;stroke:none;stroke-width:0.26458332"
         inkscape:connector-curvature="0"
         d="m 78.064898,121.96479 -0.388367,0.73748 0.37916,0.51675 0.341987,0.29941 0.677433,-0.0935 0.09896,-0.59852 -0.187841,-0.70604 c 0,0 -0.247634,-0.27082 -0.334558,-0.25596 -0.08691,0.0149 -0.586761,0.10038 -0.586761,0.10038 z"
         id="path1010-5-7-9" />
      <path
         style="fill:#3b3b3b;fill-opacity:1;stroke:none;stroke-width:0.26458332"
         inkscape:connector-curvature="0"
         d="m 80.354542,122.53506 -0.123278,0.84872 c 0,0 0.188431,0.84015 0.264777,0.8942 0.07634,0.0541 0.751219,0.20706 0.751219,0.20706 l 0.308851,-0.67913 -0.0729,-0.94938 -0.538163,-0.40007 z"
         id="path1012-8-9-3" />
      <path
         style="fill:#3b3b3b;fill-opacity:1;stroke:none;stroke-width:0.26458332"
         inkscape:connector-curvature="0"
         d="m 77.493428,125.68625 c -0.01057,0.0689 -0.274851,1.00886 -0.274851,1.00886 l 0.246726,0.91965 -0.155603,0.92135 0.322541,0.83958 0.831834,0.41695 0.912212,-0.29022 0.449851,-0.77036 1.43237,0.13532 c 0,0 0.823587,-0.6777 0.790712,-0.73919 -0.03288,-0.0615 -0.04115,-1.15612 -0.04115,-1.15612 0,0 -0.898736,-0.80815 -1.086903,-0.73125 0,0 -0.504978,-1.12155 -1.371703,-1.21939 -0.866752,-0.0978 -1.587082,0.13721 -1.587082,0.13721 z"
         id="path1014-5-1-8" />
      <path
         style="fill:#3b3b3b;fill-opacity:1;stroke:#000000;stroke-width:0.52916664;stroke-linecap:round;stroke-linejoin:round;stroke-miterlimit:10"
         inkscape:connector-curvature="0"
         stroke-miterlimit="10"
         d="m 80.862679,126.23896 c -0.01931,-0.0559 -0.04013,-0.11159 -0.06448,-0.16675 -0.442998,-1.00242 -1.560581,-1.47986 -2.496165,-1.06638 -0.935585,0.41348 -1.334899,1.56126 -0.891901,2.56368 0.0244,0.0552 0.05157,0.10803 0.07989,0.15996 -0.248206,0.35884 -0.308727,0.84953 -0.109808,1.29962 0.29534,0.66828 1.040375,0.98656 1.664108,0.71091 0.42009,-0.18565 0.810491,-1.08137 0.861979,-1.1041 0.05148,-0.0228 0.97665,0.29155 1.396739,0.10589 0.623733,-0.27564 0.889924,-1.04084 0.594609,-1.70912 -0.198947,-0.45008 -0.60251,-0.73568 -1.034961,-0.79371 z"
         id="path1030-0-03-3" />
      <ellipse
         style="fill:#3b3b3b;fill-opacity:1;stroke:#000000;stroke-width:0.52917558;stroke-linecap:round;stroke-linejoin:round;stroke-miterlimit:10"
         cx="2.1479993"
         cy="145.28239"
         rx="0.71129131"
         ry="0.99574971"
         transform="rotate(-30.847593)"
         stroke-miterlimit="10"
         id="ellipse1032-9-59-2" />
      <ellipse
         style="fill:#3b3b3b;fill-opacity:1;stroke:#000000;stroke-width:0.52915448;stroke-linecap:round;stroke-linejoin:round;stroke-miterlimit:10"
         cx="-32.762417"
         cy="143.36934"
         rx="0.71126294"
         ry="0.99571002"
         transform="rotate(-43.747632)"
         stroke-miterlimit="10"
         id="ellipse1034-9-4-9" />
      <ellipse
         style="fill:#3b3b3b;fill-opacity:1;stroke:#000000;stroke-width:0.52916741;stroke-linecap:round;stroke-linejoin:round;stroke-miterlimit:10"
         cx="-130.57336"
         cy="68.89492"
         rx="0.99573433"
         ry="0.71128035"
         transform="rotate(-95.41505)"
         stroke-miterlimit="10"
         id="ellipse1036-8-8-5" />
      <ellipse
         style="fill:#3b3b3b;fill-opacity:1;stroke:#000000;stroke-width:0.52915931;stroke-linecap:round;stroke-linejoin:round;stroke-miterlimit:10"
         cx="36.539829"
         cy="140.98247"
         rx="0.71126944"
         ry="0.99571902"
         transform="rotate(-18.088501)"
         stroke-miterlimit="10"
         id="ellipse1038-0-4-4" />
      <path
         style="fill:#3b3b3b;fill-opacity:1;stroke:none;stroke-width:0.26458332"
         inkscape:connector-curvature="0"
         d="m 74.995037,143.68495 c 0,0 0.115307,0.72682 0.211739,0.81186 0.09644,0.085 0.81541,0.52744 0.899478,0.50072 0.08407,-0.0267 0.650422,-0.1373 0.650422,-0.1373 l 0.130172,-0.82797 -0.647322,-0.58086 -0.877642,-0.0681 z"
         id="path1006-0-0-4-9" />
      <polygon
         transform="matrix(0.25215511,-0.08013824,0.08013824,0.25215511,70.661097,139.87942)"
         style="fill:#3b3b3b;fill-opacity:1;stroke:none"
         points="16.2544,10.5855 16.0877,13.3355 18.171,15.7521 20.421,15.7521 21.5877,14.0855 21.0877,11.0855 18.7544,8.5855 "
         id="polygon1008-3-1-9-4" />
      <path
         style="fill:#3b3b3b;fill-opacity:1;stroke:none;stroke-width:0.26458332"
         inkscape:connector-curvature="0"
         d="m 77.932171,139.60509 -0.28296,0.78399 0.446796,0.45953 0.380007,0.24938 0.658069,-0.18601 0.01548,-0.60645 -0.283408,-0.6734 c 0,0 -0.282614,-0.23408 -0.366658,-0.20737 -0.08402,0.0268 -0.567314,0.18033 -0.567314,0.18033 z"
         id="path1010-5-7-9-9" />
      <path
         style="fill:#3b3b3b;fill-opacity:1;stroke:none;stroke-width:0.26458332"
         inkscape:connector-curvature="0"
         d="m 80.27858,139.85418 -0.0051,0.85761 c 0,0 0.302485,0.80614 0.385555,0.84915 0.08307,0.043 0.772595,0.10149 0.772595,0.10149 l 0.21225,-0.71524 -0.203115,-0.93026 -0.58819,-0.32203 z"
         id="path1012-8-9-3-5" />
      <path
         style="fill:#3b3b3b;fill-opacity:1;stroke:none;stroke-width:0.26458332"
         inkscape:connector-curvature="0"
         d="m 77.87934,143.36981 c -9.66e-4,0.0697 -0.133108,1.03711 -0.133108,1.03711 l 0.371186,0.87684 -0.02707,0.93401 0.435236,0.78708 0.881382,0.29826 0.863477,-0.41324 0.339324,-0.82503 1.437346,-0.0635 c 0,0 0.722266,-0.78479 0.681226,-0.84115 -0.04104,-0.0564 -0.20018,-1.13941 -0.20018,-1.13941 0,0 -1.00159,-0.67649 -1.177356,-0.57438 0,0 -0.654812,-1.0412 -1.526748,-1.01859 -0.871963,0.0226 -1.553,0.35476 -1.553,0.35476 z"
         id="path1014-5-1-8-5" />
      <path
         style="fill:#3b3b3b;fill-opacity:1;stroke:#000000;stroke-width:0.52916664;stroke-linecap:round;stroke-linejoin:round;stroke-miterlimit:10"
         inkscape:connector-curvature="0"
         stroke-miterlimit="10"
         d="m 81.292619,143.45262 c -0.02684,-0.0527 -0.05514,-0.10499 -0.08686,-0.15626 -0.576997,-0.93176 -1.74974,-1.25052 -2.61937,-0.71198 -0.86963,0.53854 -1.106853,1.73042 -0.529855,2.66218 0.03177,0.0513 0.06597,0.0999 0.101179,0.14741 -0.196351,0.38964 -0.188628,0.88399 0.07045,1.30235 0.384673,0.62117 1.166479,0.83366 1.746243,0.47464 0.390476,-0.2418 0.65363,-1.1828 0.701491,-1.21242 0.04785,-0.0297 1.007524,0.15409 1.397998,-0.0877 0.579764,-0.35902 0.737894,-1.15362 0.353246,-1.77479 -0.259111,-0.41835 -0.698202,-0.64557 -1.134523,-0.64341 z"
         id="path1030-0-03-3-7" />
      <ellipse
         style="fill:#3b3b3b;fill-opacity:1;stroke:#000000;stroke-width:0.52917558;stroke-linecap:round;stroke-linejoin:round;stroke-miterlimit:10"
         cx="-29.004595"
         cy="158.18756"
         rx="0.71129131"
         ry="0.99574971"
         transform="rotate(-38.773766)"
         stroke-miterlimit="10"
         id="ellipse1032-9-59-2-3" />
      <ellipse
         style="fill:#3b3b3b;fill-opacity:1;stroke:#000000;stroke-width:0.52915448;stroke-linecap:round;stroke-linejoin:round;stroke-miterlimit:10"
         cx="-66.009842"
         cy="148.99394"
         rx="0.71126294"
         ry="0.99571002"
         transform="rotate(-51.673805)"
         stroke-miterlimit="10"
         id="ellipse1034-9-4-9-9" />
      <ellipse
         style="fill:#3b3b3b;fill-opacity:1;stroke:#000000;stroke-width:0.52916741;stroke-linecap:round;stroke-linejoin:round;stroke-miterlimit:10"
         cx="-155.60632"
         cy="46.303375"
         rx="0.99573433"
         ry="0.71128035"
         transform="rotate(-103.34122)"
         stroke-miterlimit="10"
         id="ellipse1036-8-8-5-0" />
      <ellipse
         style="fill:#3b3b3b;fill-opacity:1;stroke:#000000;stroke-width:0.52915931;stroke-linecap:round;stroke-linejoin:round;stroke-miterlimit:10"
         cx="9.0066118"
         cy="160.44908"
         rx="0.71126944"
         ry="0.99571902"
         transform="rotate(-26.014674)"
         stroke-miterlimit="10"
         id="ellipse1038-0-4-4-7" />
    </g>
    <text
       xml:space="preserve"
       style="font-style:normal;font-variant:normal;font-weight:bold;font-stretch:normal;font-size:3.65785027px;line-height:1;font-family:FreeMono;-inkscape-font-specification:'FreeMono Bold';text-align:start;letter-spacing:0px;word-spacing:0.1524104px;text-orientation:upright;text-anchor:start;fill:#000000;fill-opacity:1;stroke:none;stroke-width:0.1524104"
       x="62.211983"
       y="187.95943"
       id="text2330"><tspan
         sodipodi:role="line"
         id="tspan2328"
         x="62.211983"
         y="187.95943"
         style="font-style:normal;font-variant:normal;font-weight:bold;font-stretch:normal;font-family:FreeMono;-inkscape-font-specification:'FreeMono Bold';stroke-width:0.1524104">POO - projet final</tspan><tspan
         sodipodi:role="line"
         x="62.211983"
         y="191.61728"
         style="font-style:normal;font-variant:normal;font-weight:bold;font-stretch:normal;font-family:FreeMono;-inkscape-font-specification:'FreeMono Bold';stroke-width:0.1524104"
         id="tspan2334">Valentina Fedchenko</tspan><tspan
         sodipodi:role="line"
         x="62.211983"
         y="195.27513"
         style="font-style:normal;font-variant:normal;font-weight:bold;font-stretch:normal;font-family:FreeMono;-inkscape-font-specification:'FreeMono Bold';stroke-width:0.1524104"
         id="tspan2332">Cécile Guitel</tspan></text>
    <text
       xml:space="preserve"
       style="font-style:normal;font-variant:normal;font-weight:normal;font-stretch:normal;font-size:1.49655581px;line-height:1;font-family:FreeMono;-inkscape-font-specification:FreeMono;text-align:start;letter-spacing:-0.12471298px;word-spacing:0.12471298px;text-orientation:upright;text-anchor:start;fill:#000000;fill-opacity:1;stroke:none;stroke-width:0.12471298"
       x="62.566826"
       y="198.06117"
       id="text2338"><tspan
         sodipodi:role="line"
         id="tspan2336"
         x="62.566826"
         y="198.06117"
         style="font-style:normal;font-variant:normal;font-weight:normal;font-stretch:normal;font-size:1.9954077px;font-family:FreeMono;-inkscape-font-specification:FreeMono;letter-spacing:-0.12471298px;stroke-width:0.12471298">Élements graphiques adaptés de OpenMoji</tspan><tspan
         sodipodi:role="line"
         x="62.566826"
         y="200.05658"
         style="font-style:normal;font-variant:normal;font-weight:normal;font-stretch:normal;font-size:1.9954077px;font-family:FreeMono;-inkscape-font-specification:FreeMono;letter-spacing:-0.12471298px;stroke-width:0.12471298"
         id="tspan2340">License: CC BY-SA 4.0</tspan></text>
  </g>
</svg>
